<svg width="16" height="17" viewBox="0 0 16 17" fill="none" xmlns="http://www.w3.org/2000/svg">
<g id="block 1">
<g clip-path="url(#clip0_66_315)">
<g id="Group">
<path id="Vector" d="M7.51436 7.13414C7.81638 7.30193 8.18362 7.30193 8.48564 7.13414L12.4265 4.94477C13.1123 4.56376 13.1123 3.57746 12.4265 3.19646L8.324 0.917279C8.2249 0.862173 8.11339 0.833252 8 0.833252C7.88661 0.833252 7.7751 0.862173 7.676 0.917279L3.57348 3.19646C2.88767 3.57746 2.88767 4.56376 3.57348 4.94477L7.51436 7.13414Z" fill="#0F172A"/>
<path id="Vector_2" d="M7.33301 9.14696C7.33301 8.78379 7.13612 8.44917 6.81865 8.2728L2.81865 6.05058C2.15212 5.68028 1.33301 6.16225 1.33301 6.92473V12.1666C1.333 12.2854 1.36477 12.4021 1.42502 12.5045C1.48527 12.607 1.57181 12.6915 1.67567 12.7492L5.8474 15.0666C6.51393 15.4369 7.33301 14.9549 7.33301 14.1924V9.14696Z" fill="#0F172A"/>
<path id="Vector_3" d="M9.18045 8.27288C8.86294 8.44924 8.66602 8.78388 8.66602 9.14708V14.1925C8.66602 14.955 9.48509 15.437 10.1516 15.0667L14.3233 12.7493C14.4272 12.6915 14.5138 12.607 14.574 12.5046C14.6343 12.4022 14.666 12.2855 14.666 12.1666V6.9253C14.666 6.16286 13.847 5.68088 13.1804 6.0511L9.18045 8.27288Z" fill="#0F172A"/>
</g>
</g>
</g>
<defs>
<clipPath id="clip0_66_315">
<rect y="0.5" width="16" height="16" rx="4" fill="white"/>
</clipPath>
</defs>
</svg>
