<svg width="203" height="32" viewBox="0 0 203 32" fill="none" xmlns="http://www.w3.org/2000/svg">
<g clip-path="url(#clip0_124_422)">
<path d="M16.8345 31.8928C26.0739 31.8928 33.5638 24.7774 33.5638 16C33.5638 7.22269 26.0739 0.107239 16.8345 0.107239C7.59523 0.107239 0.105286 7.22269 0.105286 16C0.105286 24.7774 7.59523 31.8928 16.8345 31.8928Z" fill="url(#paint0_linear_124_422)"/>
<path d="M15.7416 26.5393C15.1488 26.5393 14.566 26.4289 14.0086 26.2145C13.0654 25.8481 12.2822 25.1969 11.777 24.3665L11.7669 24.3713C11.361 24.5297 10.9349 24.6097 10.497 24.6097C9.83507 24.6097 9.19339 24.4241 8.64097 24.0721C7.71465 23.4833 7.16223 22.4993 7.16223 21.4401V11.3553C7.16223 10.2897 7.72139 9.30091 8.65781 8.71211C9.20686 8.36811 9.84181 8.18571 10.497 8.18571C10.9382 8.18571 11.3694 8.26731 11.7787 8.43051C12.2839 7.60171 13.0654 6.95211 14.0069 6.58731C14.5627 6.37131 15.1454 6.26251 15.7399 6.26251C16.3479 6.26251 16.9441 6.37771 17.5117 6.60331L24.9206 9.55851C25.5555 9.81131 26.049 10.2849 26.31 10.8913C26.5711 11.4977 26.5677 12.1633 26.3016 12.7665C26.0355 13.3697 25.537 13.8385 24.8987 14.0865C24.5871 14.2081 24.2587 14.2689 23.9235 14.2689C23.5799 14.2689 23.2448 14.2049 22.9248 14.0769L12.6393 9.97451V22.8273L22.9264 18.7249C23.2448 18.5985 23.5799 18.5345 23.9218 18.5345C24.966 18.5345 25.9008 19.1249 26.3033 20.0369C26.5694 20.6401 26.5728 21.3073 26.3117 21.9121C26.0507 22.5185 25.5572 22.9905 24.9222 23.2449L17.5117 26.2001C16.9475 26.4241 16.3513 26.5393 15.7416 26.5393ZM12.8616 23.9345C13.2389 24.4961 13.793 24.9377 14.4498 25.1921C14.8658 25.3537 15.3003 25.4353 15.7433 25.4353C16.1963 25.4353 16.641 25.3505 17.0654 25.1809L24.4742 22.2257C24.8229 22.0865 25.094 21.8257 25.2389 21.4929C25.3837 21.1601 25.3803 20.7937 25.2338 20.4625C25.0115 19.9617 24.4978 19.6369 23.9235 19.6369C23.7349 19.6369 23.5513 19.6721 23.3778 19.7425L12.8616 23.9345ZM10.4987 9.29451C10.0726 9.29451 9.65992 9.41291 9.30455 9.63691C8.69655 10.0193 8.33276 10.6609 8.33276 11.3537V21.4385C8.33276 22.1361 8.68308 22.7601 9.29276 23.1489C9.65655 23.3793 10.0709 23.5025 10.4919 23.5025C10.7732 23.5025 11.0528 23.4497 11.3222 23.3441L11.4704 23.2865V9.51051L11.3458 9.46091C11.078 9.35051 10.7917 9.29451 10.4987 9.29451ZM23.3761 13.0577C23.553 13.1281 23.7366 13.1633 23.9252 13.1633C24.1088 13.1633 24.289 13.1297 24.4624 13.0625C24.8128 12.9265 25.0873 12.6689 25.2338 12.3377C25.3803 12.0065 25.382 11.6401 25.2389 11.3073C25.0957 10.9745 24.8246 10.7153 24.4742 10.5761L17.0654 7.62091C16.641 7.45131 16.1963 7.36651 15.7433 7.36651C15.3003 7.36651 14.8658 7.44811 14.4515 7.60971C13.7845 7.86891 13.2422 8.29931 12.8633 8.86731L23.3761 13.0577Z" fill="white"/>
<path d="M15.7464 26.48C15.1552 26.48 14.5742 26.3712 14.0201 26.1552C13.0803 25.7904 12.2988 25.1409 11.7969 24.3137L11.7868 24.3184C11.3826 24.4768 10.9582 24.5568 10.522 24.5568C9.86177 24.5568 9.22346 24.3712 8.67272 24.0208C7.74977 23.4336 7.19904 22.4528 7.19904 21.3984V11.3472C7.19904 10.2848 7.75651 9.30085 8.68956 8.71365C9.23693 8.36965 9.8702 8.18885 10.522 8.18885C10.9616 8.18885 11.3927 8.27045 11.8003 8.43205C12.3039 7.60645 13.0837 6.95844 14.0201 6.59524C14.5742 6.38084 15.1552 6.27045 15.7464 6.27045C16.3527 6.27045 16.9456 6.38405 17.5115 6.60965L24.8967 9.55524C25.53 9.80804 26.0218 10.28 26.2811 10.8832C26.5405 11.4864 26.5371 12.1504 26.2727 12.752C26.0066 13.3536 25.5098 13.8208 24.8748 14.0672C24.5632 14.1888 24.2365 14.2496 23.903 14.2496C23.5611 14.2496 23.226 14.1856 22.9077 14.0592L12.6559 9.97125V22.7792L22.9077 18.6912C23.2243 18.5648 23.5578 18.5008 23.8997 18.5008C24.9405 18.5008 25.8719 19.088 26.2727 19.9984C26.5388 20.6 26.5422 21.264 26.2811 21.8672C26.0218 22.4704 25.53 22.9424 24.8967 23.1952L17.5115 26.1392C16.9472 26.3664 16.3527 26.48 15.7464 26.48ZM12.8748 23.8849C13.2504 24.4449 13.8028 24.8848 14.4563 25.1376C14.8706 25.2992 15.3035 25.3792 15.7447 25.3792C16.1961 25.3792 16.639 25.2945 17.0618 25.1249L24.4454 22.1792C24.794 22.04 25.0635 21.7808 25.2066 21.4496C25.3498 21.1184 25.3481 20.7536 25.2016 20.4224C24.9809 19.9232 24.4689 19.6 23.8963 19.6C23.7094 19.6 23.5258 19.6353 23.3523 19.7041L12.8748 23.8849ZM10.5203 9.29445C10.0959 9.29445 9.68493 9.41284 9.32956 9.63524C8.72325 10.016 8.36114 10.656 8.36114 11.3472V21.3984C8.36114 22.0944 8.70977 22.7152 9.31777 23.1024C9.67988 23.3328 10.0925 23.4545 10.5136 23.4545C10.7948 23.4545 11.0727 23.4016 11.3422 23.296L11.4904 23.2384V9.50885L11.3675 9.45925C11.098 9.35045 10.8134 9.29445 10.5203 9.29445ZM23.354 13.0449C23.5291 13.1153 23.7127 13.1504 23.9014 13.1504C24.0849 13.1504 24.2635 13.1168 24.4369 13.0496C24.7872 12.9136 25.0601 12.6576 25.2049 12.3264C25.3515 11.9952 25.3531 11.6304 25.21 11.2992C25.0668 10.968 24.7974 10.7088 24.4487 10.5696L17.0651 7.62405C16.6424 7.45605 16.1995 7.36965 15.7481 7.36965C15.3068 7.36965 14.874 7.45125 14.4597 7.61125C13.7961 7.86885 13.2538 8.29925 12.8765 8.86405L23.354 13.0449Z" fill="#F4F4F4"/>
<path d="M47.2313 25.248C46.1113 24.6496 45.2507 23.7936 44.6494 22.6784C44.0481 21.5632 43.7484 20.2432 43.7484 18.7184V13.2512C43.7484 11.7264 44.0481 10.4064 44.6494 9.29122C45.2507 8.17602 46.1113 7.31841 47.2313 6.71521C48.3513 6.11201 49.6717 5.81122 51.1909 5.81122C52.4507 5.81122 53.5926 6.06721 54.6166 6.57761C55.6406 7.08961 56.4911 7.82722 57.1698 8.79042C57.8469 9.75522 58.3117 10.8944 58.5627 12.2096H55.014C54.8406 11.5712 54.5677 11.0112 54.1921 10.5312C53.8182 10.0512 53.3719 9.68481 52.8582 9.42881C52.3429 9.17281 51.7871 9.04482 51.1926 9.04482C50.3942 9.04482 49.7037 9.21601 49.1227 9.55841C48.5399 9.90081 48.0919 10.3872 47.7736 11.0176C47.457 11.648 47.2987 12.3936 47.2987 13.2512V18.7184C47.2987 19.5776 47.457 20.3216 47.7736 20.952C48.0919 21.5824 48.5399 22.0672 49.1227 22.4048C49.7037 22.7424 50.3942 22.912 51.1926 22.912C51.7972 22.912 52.358 22.7888 52.8717 22.5424C53.3871 22.296 53.8317 21.9344 54.2056 21.4592C54.5795 20.984 54.849 20.4128 55.014 19.7456H58.5627C58.3033 21.0608 57.8351 22.2 57.1564 23.1648C56.4776 24.1296 55.6271 24.8656 54.6031 25.3776C53.5791 25.8896 52.4422 26.144 51.1926 26.144C49.67 26.1456 48.3513 25.8464 47.2313 25.248Z" fill="black"/>
<path d="M63.1943 6.01605H66.6419V25.9409H63.1943V6.01605ZM65.025 14.5249H76.9543V17.6625H65.025V14.5249ZM74.8928 6.01605H78.3404V25.9409H74.8928V6.01605Z" fill="black"/>
<path d="M89.8402 6.01605H92.3497L100.227 25.9409H96.5181L91.0949 11.0993L85.6718 25.9409H81.9648L89.8402 6.01605ZM85.6718 19.0193H96.7067V22.1569H85.6718V19.0193Z" fill="black"/>
<path d="M107.225 25.9392H103.705V6.01605H107.225V25.9392Z" fill="black"/>
<path d="M112.722 6.01605H116.473L125.502 21.3505L125.155 21.7073V6.01605H128.501V25.9281H124.722L115.721 10.8273L116.068 10.4705V25.9281H112.722V6.01605Z" fill="black"/>
<path d="M134.147 6.01605H137.594V25.9409H134.147V6.01605ZM135.806 15.0737H142.514C143.071 15.0737 143.56 14.9521 143.977 14.7105C144.397 14.4689 144.723 14.1233 144.958 13.6753C145.192 13.2273 145.311 12.7105 145.311 12.1265C145.311 11.5329 145.195 11.0129 144.964 10.5649C144.734 10.1169 144.407 9.76966 143.984 9.52326C143.561 9.27686 143.071 9.15366 142.514 9.15366H135.806V6.01605H142.413C143.691 6.01605 144.816 6.27045 145.788 6.77605C146.758 7.28325 147.514 7.99846 148.051 8.92006C148.59 9.84326 148.86 10.9121 148.86 12.1265C148.86 13.3409 148.59 14.4081 148.051 15.3265C147.513 16.2449 146.758 16.9553 145.788 17.4577C144.816 17.9601 143.691 18.2113 142.413 18.2113H135.806V15.0737Z" fill="black"/>
<path d="M153.276 6.01605H156.724V25.9409H153.276V6.01605ZM154.891 22.8017H167.036V25.9393H154.891V22.8017Z" fill="black"/>
<path d="M176.806 6.01605H179.315L187.192 25.9409H183.484L178.061 11.0993L172.638 25.9409H168.931L176.806 6.01605ZM172.638 19.0193H183.673V22.1569H172.638V19.0193Z" fill="black"/>
<path d="M195.922 18.0464V25.9392H192.489V18.0464L186.199 6.0144H189.906L194.204 14.7984L198.502 6.0144H202.209L195.922 18.0464Z" fill="black"/>
</g>
<defs>
<linearGradient id="paint0_linear_124_422" x1="0.106313" y1="16" x2="33.5641" y2="16" gradientUnits="userSpaceOnUse">
<stop stop-color="#D71C5D"/>
<stop offset="0.109" stop-color="#DC2B54"/>
<stop offset="0.5225" stop-color="#EF6233"/>
<stop offset="0.8319" stop-color="#FB831F"/>
<stop offset="1" stop-color="#FF9017"/>
</linearGradient>
<clipPath id="clip0_124_422">
<rect width="202.105" height="32" fill="white" transform="translate(0.105286)"/>
</clipPath>
</defs>
</svg>
