<svg width="203" height="32" viewBox="0 0 203 32" fill="none" xmlns="http://www.w3.org/2000/svg">
<g id="chainplay-web 1" clip-path="url(#clip0_139_1531)">
<g id="Group">
<g id="Group_2">
<path id="Vector" d="M16.7293 31.8928C25.9686 31.8928 33.4585 24.7773 33.4585 16C33.4585 7.22263 25.9686 0.107178 16.7293 0.107178C7.48995 0.107178 0 7.22263 0 16C0 24.7773 7.48995 31.8928 16.7293 31.8928Z" fill="white"/>
<g id="Group_3">
<g id="Group_4">
<path id="Vector_2" d="M15.6363 26.5392C15.0435 26.5392 14.4607 26.4289 13.9032 26.2145C12.9601 25.8481 12.1769 25.1968 11.6717 24.3664L11.6616 24.3713C11.2557 24.5297 10.8296 24.6096 10.3917 24.6096C9.72977 24.6096 9.08809 24.4241 8.53567 24.0721C7.60935 23.4833 7.05693 22.4993 7.05693 21.4401V11.3552C7.05693 10.2896 7.61609 9.30085 8.55251 8.71205C9.10156 8.36805 9.73651 8.18564 10.3917 8.18564C10.8329 8.18564 11.2641 8.26725 11.6734 8.43045C12.1786 7.60165 12.9601 6.95205 13.9016 6.58725C14.4574 6.37125 15.0401 6.26245 15.6346 6.26245C16.2426 6.26245 16.8388 6.37765 17.4064 6.60325L24.8152 9.55845C25.4502 9.81125 25.9437 10.2849 26.2047 10.8913C26.4658 11.4977 26.4624 12.1632 26.1963 12.7664C25.9302 13.3696 25.4317 13.8384 24.7934 14.0864C24.4818 14.208 24.1534 14.2688 23.8182 14.2688C23.4746 14.2688 23.1395 14.2048 22.8195 14.0768L12.534 9.97445V22.8272L22.8211 18.7249C23.1395 18.5985 23.4746 18.5345 23.8165 18.5345C24.8607 18.5345 25.7955 19.1248 26.198 20.0368C26.4641 20.64 26.4675 21.3073 26.2064 21.9121C25.9454 22.5185 25.4519 22.9905 24.8169 23.2449L17.4064 26.2001C16.8422 26.424 16.246 26.5392 15.6363 26.5392ZM12.7563 23.9345C13.1336 24.4961 13.6877 24.9377 14.3445 25.1921C14.7605 25.3537 15.195 25.4352 15.638 25.4352C16.091 25.4352 16.5357 25.3505 16.9601 25.1809L24.3689 22.2256C24.7176 22.0864 24.9887 21.8257 25.1336 21.4929C25.2784 21.1601 25.275 20.7937 25.1285 20.4625C24.9062 19.9617 24.3925 19.6368 23.8182 19.6368C23.6296 19.6368 23.446 19.6721 23.2725 19.7425L12.7563 23.9345ZM10.3934 9.29445C9.96725 9.29445 9.55462 9.41285 9.19925 9.63685C8.59125 10.0192 8.22746 10.6609 8.22746 11.3537V21.4384C8.22746 22.136 8.57777 22.76 9.18746 23.1488C9.55125 23.3792 9.96556 23.5025 10.3866 23.5025C10.6679 23.5025 10.9475 23.4497 11.2169 23.3441L11.3651 23.2864V9.51045L11.2405 9.46085C10.9727 9.35045 10.6864 9.29445 10.3934 9.29445ZM23.2708 13.0576C23.4477 13.128 23.6312 13.1633 23.8199 13.1633C24.0035 13.1633 24.1837 13.1297 24.3571 13.0625C24.7075 12.9265 24.982 12.6688 25.1285 12.3376C25.275 12.0064 25.2767 11.64 25.1336 11.3072C24.9904 10.9744 24.7192 10.7152 24.3689 10.576L16.9601 7.62085C16.5357 7.45125 16.091 7.36645 15.638 7.36645C15.195 7.36645 14.7605 7.44805 14.3462 7.60965C13.6792 7.86885 13.1369 8.29925 12.758 8.86725L23.2708 13.0576Z" fill="white"/>
</g>
</g>
</g>
<g id="Group_5">
<g id="Group_6">
<path id="Vector_3" d="M15.6411 26.4799C15.05 26.4799 14.4689 26.3711 13.9148 26.1551C12.975 25.7903 12.1936 25.1407 11.6917 24.3135L11.6816 24.3183C11.2774 24.4767 10.8529 24.5567 10.4167 24.5567C9.75652 24.5567 9.1182 24.3711 8.56746 24.0207C7.64452 23.4335 7.09378 22.4527 7.09378 21.3983V11.3471C7.09378 10.2847 7.65126 9.30067 8.58431 8.71347C9.13168 8.36947 9.76494 8.18866 10.4167 8.18866C10.8563 8.18866 11.2875 8.27027 11.695 8.43187C12.1986 7.60627 12.9784 6.95826 13.9148 6.59506C14.4689 6.38066 15.05 6.27026 15.6411 6.27026C16.2475 6.27026 16.8403 6.38386 17.4062 6.60946L24.7915 9.55506C25.4247 9.80786 25.9165 10.2799 26.1759 10.8831C26.4353 11.4863 26.4319 12.1503 26.1675 12.7519C25.9014 13.3535 25.4045 13.8207 24.7696 14.0671C24.458 14.1887 24.1313 14.2495 23.7978 14.2495C23.4559 14.2495 23.1207 14.1855 22.8024 14.0591L12.5506 9.97106V22.7791L22.8024 18.6911C23.119 18.5647 23.4525 18.5007 23.7944 18.5007C24.8353 18.5007 25.7666 19.0879 26.1675 19.9983C26.4336 20.5999 26.4369 21.2639 26.1759 21.8671C25.9165 22.4703 25.4247 22.9423 24.7915 23.1951L17.4062 26.1391C16.842 26.3663 16.2475 26.4799 15.6411 26.4799ZM12.7696 23.8847C13.1452 24.4447 13.6976 24.8847 14.351 25.1375C14.7654 25.2991 15.1982 25.3791 15.6395 25.3791C16.0908 25.3791 16.5338 25.2943 16.9565 25.1247L24.3401 22.1791C24.6887 22.0399 24.9582 21.7807 25.1014 21.4495C25.2445 21.1183 25.2428 20.7535 25.0963 20.4223C24.8757 19.9231 24.3637 19.5999 23.791 19.5999C23.6041 19.5999 23.4205 19.6351 23.247 19.7039L12.7696 23.8847ZM10.415 9.29427C9.99062 9.29427 9.57968 9.41266 9.22431 9.63506C8.61799 10.0159 8.25589 10.6559 8.25589 11.3471V21.3983C8.25589 22.0943 8.60452 22.7151 9.21252 23.1023C9.57462 23.3327 9.98726 23.4543 10.4083 23.4543C10.6896 23.4543 10.9675 23.4015 11.2369 23.2959L11.3852 23.2383V9.50866L11.2622 9.45906C10.9927 9.35026 10.7081 9.29427 10.415 9.29427ZM23.2487 13.0447C23.4239 13.1151 23.6075 13.1503 23.7961 13.1503C23.9797 13.1503 24.1582 13.1167 24.3317 13.0495C24.682 12.9135 24.9548 12.6575 25.0997 12.3263C25.2462 11.9951 25.2479 11.6303 25.1047 11.2991C24.9616 10.9679 24.6921 10.7087 24.3435 10.5695L16.9599 7.62387C16.5371 7.45587 16.0942 7.36946 15.6428 7.36946C15.2016 7.36946 14.7687 7.45106 14.3544 7.61106C13.6908 7.86866 13.1485 8.29907 12.7713 8.86387L23.2487 13.0447Z" fill="url(#paint0_linear_139_1531)"/>
</g>
</g>
<g id="Group_7">
<path id="Vector_4" d="M47.126 25.2481C46.006 24.6497 45.1454 23.7937 44.5441 22.6785C43.9428 21.5633 43.6431 20.2433 43.6431 18.7185V13.2513C43.6431 11.7265 43.9428 10.4065 44.5441 9.29128C45.1454 8.17608 46.006 7.31847 47.126 6.71527C48.246 6.11207 49.5664 5.81128 51.0856 5.81128C52.3454 5.81128 53.4873 6.06728 54.5113 6.57768C55.5353 7.08968 56.3858 7.82728 57.0645 8.79048C57.7416 9.75528 58.2064 10.8945 58.4574 12.2097H54.9087C54.7353 11.5713 54.4624 11.0113 54.0868 10.5313C53.7129 10.0513 53.2666 9.68488 52.7529 9.42888C52.2376 9.17288 51.6818 9.04488 51.0873 9.04488C50.2889 9.04488 49.5984 9.21608 49.0174 9.55848C48.4346 9.90088 47.9866 10.3873 47.6683 11.0177C47.3517 11.6481 47.1934 12.3937 47.1934 13.2513V18.7185C47.1934 19.5777 47.3517 20.3217 47.6683 20.9521C47.9866 21.5825 48.4346 22.0673 49.0174 22.4049C49.5984 22.7425 50.2889 22.9121 51.0873 22.9121C51.6919 22.9121 52.2527 22.7889 52.7664 22.5425C53.2818 22.2961 53.7264 21.9345 54.1003 21.4593C54.4742 20.9841 54.7437 20.4129 54.9087 19.7457H58.4574C58.198 21.0609 57.7298 22.2001 57.0511 23.1649C56.3723 24.1297 55.5218 24.8657 54.4978 25.3777C53.4738 25.8897 52.3369 26.1441 51.0873 26.1441C49.5647 26.1457 48.246 25.8465 47.126 25.2481Z" fill="white"/>
<path id="Vector_5" d="M63.089 6.01611H66.5366V25.9409H63.089V6.01611ZM64.9197 14.5249H76.849V17.6625H64.9197V14.5249ZM74.7875 6.01611H78.2351V25.9409H74.7875V6.01611Z" fill="white"/>
<path id="Vector_6" d="M89.7349 6.01611H92.2444L100.121 25.9409H96.4128L90.9896 11.0993L85.5665 25.9409H81.8595L89.7349 6.01611ZM85.5665 19.0193H96.6014V22.1569H85.5665V19.0193Z" fill="white"/>
<path id="Vector_7" d="M107.119 25.9393H103.599V6.01611H107.119V25.9393Z" fill="white"/>
<path id="Vector_8" d="M112.616 6.01611H116.367L125.396 21.3505L125.049 21.7073V6.01611H128.396V25.9281H124.616L115.616 10.8273L115.963 10.4705V25.9281H112.616V6.01611Z" fill="white"/>
<path id="Vector_9" d="M134.041 6.01611H137.489V25.9409H134.041V6.01611ZM135.7 15.0737H142.408C142.966 15.0737 143.454 14.9521 143.872 14.7105C144.291 14.4689 144.618 14.1233 144.852 13.6753C145.086 13.2273 145.206 12.7105 145.206 12.1265C145.206 11.5329 145.09 11.0129 144.859 10.5649C144.628 10.1169 144.302 9.76972 143.879 9.52332C143.456 9.27692 142.966 9.15372 142.408 9.15372H135.7V6.01611H142.307C143.586 6.01611 144.711 6.27051 145.683 6.77611C146.653 7.28331 147.409 7.99852 147.946 8.92012C148.485 9.84332 148.755 10.9121 148.755 12.1265C148.755 13.3409 148.485 14.4081 147.946 15.3265C147.407 16.2449 146.653 16.9553 145.683 17.4577C144.711 17.9601 143.586 18.2113 142.307 18.2113H135.7V15.0737Z" fill="white"/>
<path id="Vector_10" d="M153.171 6.01611H156.618V25.9409H153.171V6.01611ZM154.786 22.8017H166.931V25.9393H154.786V22.8017Z" fill="white"/>
<path id="Vector_11" d="M176.701 6.01611H179.21L187.087 25.9409H183.379L177.955 11.0993L172.532 25.9409H168.825L176.701 6.01611ZM172.532 19.0193H183.567V22.1569H172.532V19.0193Z" fill="white"/>
<path id="Vector_12" d="M195.816 18.0464V25.9392H192.384V18.0464L186.094 6.0144H189.8L194.099 14.7984L198.397 6.0144H202.104L195.816 18.0464Z" fill="white"/>
</g>
</g>
</g>
<defs>
<linearGradient id="paint0_linear_139_1531" x1="7.09437" y1="16.3751" x2="26.3696" y2="16.3751" gradientUnits="userSpaceOnUse">
<stop stop-color="#D71C5D"/>
<stop offset="0.109" stop-color="#DC2B54"/>
<stop offset="0.5225" stop-color="#EF6233"/>
<stop offset="0.8319" stop-color="#FB831F"/>
<stop offset="1" stop-color="#FF9017"/>
</linearGradient>
<clipPath id="clip0_139_1531">
<rect width="202.105" height="32" fill="white"/>
</clipPath>
</defs>
</svg>
