<svg width="27" height="24" viewBox="0 0 27 24" fill="none" xmlns="http://www.w3.org/2000/svg">
<g id="vuesax/bold/code">
<path id="Subtract" fill-rule="evenodd" clip-rule="evenodd" d="M2.81905 9.80005H10.9946V23L8.4368 23C8.20322 23 7.96963 22.989 7.73605 22.967C4.13882 22.747 1.91975 20.6571 1.68616 17.2691C1.6628 17.049 1.65112 16.829 1.65112 16.609V10.9C1.65112 10.295 2.17669 9.80005 2.81905 9.80005ZM12.1625 15.3V9.80005H23.8418C24.4842 9.80005 25.0098 10.295 25.0098 10.9V15.3H12.1625ZM12.1625 16.4V23L18.2241 23C18.4577 23 18.6912 22.989 18.9248 22.967C22.5221 22.747 24.7411 20.6571 24.9747 17.2691C24.9981 17.049 25.0098 16.829 25.0098 16.609V16.4H12.1625Z" fill="#94A3B8"/>
<path id="Subtract_2" fill-rule="evenodd" clip-rule="evenodd" d="M25.0098 7.6V7.391C25.0098 7.171 24.9981 6.951 24.9747 6.731C24.7411 3.343 22.5221 1.253 18.9248 1.033C18.6912 1.011 18.4577 1 18.2241 1H8.4368C8.20322 1 7.96963 1.011 7.73605 1.033C4.13882 1.253 1.91975 3.343 1.68616 6.731C1.6628 6.951 1.65112 7.171 1.65112 7.391V7.611C1.65112 8.216 2.17669 8.711 2.81905 8.711L23.8418 8.7C24.4842 8.7 25.0098 8.205 25.0098 7.6ZM6.25492 4.3C5.6474 4.3 5.15492 4.79249 5.15492 5.4C5.15492 6.00751 5.64741 6.5 6.25492 6.5H6.39078C6.99829 6.5 7.49078 6.00751 7.49078 5.4C7.49078 4.79249 6.99829 4.3 6.39078 4.3H6.25492ZM8.65871 5.4C8.65871 4.79249 9.1512 4.3 9.75871 4.3H9.89457C10.5021 4.3 10.9946 4.79249 10.9946 5.4C10.9946 6.00751 10.5021 6.5 9.89457 6.5H9.75871C9.1512 6.5 8.65871 6.00751 8.65871 5.4ZM13.2625 4.3C12.655 4.3 12.1625 4.79249 12.1625 5.4C12.1625 6.00751 12.655 6.5 13.2625 6.5H13.3984C14.0059 6.5 14.4984 6.00751 14.4984 5.4C14.4984 4.79249 14.0059 4.3 13.3984 4.3H13.2625Z" fill="#94A3B8"/>
</g>
</svg>
