<svg width="32" height="32" viewBox="0 0 32 32" fill="none" xmlns="http://www.w3.org/2000/svg">
<path d="M15.8928 31.8929C24.6702 31.8929 31.7856 24.7775 31.7856 16.0001C31.7856 7.22275 24.6702 0.1073 15.8928 0.1073C7.11545 0.1073 0 7.22275 0 16.0001C0 24.7775 7.11545 31.8929 15.8928 31.8929Z" fill="url(#paint0_linear_195_717)"/>
<path d="M14.8545 26.5394C14.2913 26.5394 13.7377 26.429 13.2081 26.2146C12.3121 25.8482 11.5681 25.197 11.0881 24.3666L11.0785 24.3714C10.6929 24.5298 10.2881 24.6098 9.8721 24.6098C9.2433 24.6098 8.6337 24.4242 8.1089 24.0722C7.2289 23.4834 6.7041 22.4994 6.7041 21.4402V11.3554C6.7041 10.2898 7.2353 9.30097 8.1249 8.71217C8.6465 8.36817 9.2497 8.18577 9.8721 8.18577C10.2913 8.18577 10.7009 8.26737 11.0897 8.43057C11.5697 7.60177 12.3121 6.95217 13.2065 6.58737C13.7345 6.37137 14.2881 6.26257 14.8529 6.26257C15.4305 6.26257 15.9969 6.37777 16.5361 6.60337L23.5745 9.55857C24.1777 9.81137 24.6465 10.285 24.8945 10.8914C25.1425 11.4978 25.1393 12.1634 24.8865 12.7666C24.6337 13.3698 24.1601 13.8386 23.5537 14.0866C23.2577 14.2082 22.9457 14.269 22.6273 14.269C22.3009 14.269 21.9825 14.205 21.6785 14.077L11.9073 9.97458V22.8274L21.6801 18.725C21.9825 18.5986 22.3009 18.5346 22.6257 18.5346C23.6177 18.5346 24.5057 19.125 24.8881 20.037C25.1409 20.6402 25.1441 21.3074 24.8961 21.9122C24.6481 22.5186 24.1793 22.9906 23.5761 23.245L16.5361 26.2002C16.0001 26.4242 15.4337 26.5394 14.8545 26.5394ZM12.1185 23.9346C12.4769 24.4962 13.0033 24.9378 13.6273 25.1922C14.0225 25.3538 14.4353 25.4354 14.8561 25.4354C15.2865 25.4354 15.7089 25.3506 16.1121 25.181L23.1505 22.2258C23.4817 22.0866 23.7393 21.8258 23.8769 21.493C24.0145 21.1602 24.0113 20.7938 23.8721 20.4626C23.6609 19.9618 23.1729 19.637 22.6273 19.637C22.4481 19.637 22.2737 19.6722 22.1089 19.7426L12.1185 23.9346ZM9.8737 9.29458C9.4689 9.29458 9.0769 9.41297 8.7393 9.63697C8.1617 10.0194 7.8161 10.661 7.8161 11.3538V21.4386C7.8161 22.1362 8.1489 22.7602 8.7281 23.149C9.0737 23.3794 9.4673 23.5026 9.8673 23.5026C10.1345 23.5026 10.4001 23.4498 10.6561 23.3442L10.7969 23.2866V9.51057L10.6785 9.46097C10.4241 9.35057 10.1521 9.29458 9.8737 9.29458ZM22.1073 13.0578C22.2753 13.1282 22.4497 13.1634 22.6289 13.1634C22.8033 13.1634 22.9745 13.1298 23.1393 13.0626C23.4721 12.9266 23.7329 12.669 23.8721 12.3378C24.0113 12.0066 24.0129 11.6402 23.8769 11.3074C23.7409 10.9746 23.4833 10.7154 23.1505 10.5762L16.1121 7.62097C15.7089 7.45137 15.2865 7.36657 14.8561 7.36657C14.4353 7.36657 14.0225 7.44817 13.6289 7.60977C12.9953 7.86897 12.4801 8.29937 12.1201 8.86737L22.1073 13.0578Z" fill="white"/>
<defs>
<linearGradient id="paint0_linear_195_717" x1="0.000976" y1="16.0001" x2="31.7859" y2="16.0001" gradientUnits="userSpaceOnUse">
<stop stop-color="#D71C5D"/>
<stop offset="0.109" stop-color="#DC2B54"/>
<stop offset="0.5225" stop-color="#EF6233"/>
<stop offset="0.8319" stop-color="#FB831F"/>
<stop offset="1" stop-color="#FF9017"/>
</linearGradient>
</defs>
</svg>
